<svg width="202" height="54" viewBox="0 0 202 54" fill="none" xmlns="http://www.w3.org/2000/svg">
    <rect width="100%" height="100%" fill="white"/>

<path d="M175.523 18.9922V29.2273C175.523 31.0689 175.056 32.4862 174.14 33.4452C173.189 34.4976 171.696 35.0408 169.701 35.0408C167.843 35.0408 166.408 34.5315 165.398 33.5301C164.397 32.5287 163.888 31.0859 163.888 29.2273V18.9922H165.763V29.2273C165.763 31.9176 167.019 33.1737 169.701 33.1737C171.085 33.1737 172.111 32.8596 172.722 32.2486C173.342 31.6291 173.648 30.6191 173.648 29.2273V18.9922H175.523Z" fill="#0E4D65" stroke="#0E4D65" stroke-width="0.5" stroke-miterlimit="10"/>
<path d="M201 32.0025V31.7564C200.991 31.4339 200.924 31.1114 200.822 30.7974L195.993 18.9583H194.508L190.239 30.6446L190.205 30.7634L190.281 30.8568C190.604 31.3151 191.053 31.6715 191.563 31.9006L191.741 31.9516L192.089 31.1453L195.254 22.353C195.254 22.353 198.42 29.2188 199.124 31.6376C199.15 31.7224 199.141 31.8073 199.141 31.9006C199.141 32.0958 199.099 32.291 199.023 32.4693C198.683 33.267 197.478 33.5556 196.706 33.7593L196.383 33.8187L196.23 33.8526C195.84 33.929 195.45 33.9629 195.051 33.9799C194.312 33.9969 193.583 33.9035 192.87 33.6998C192.276 33.5216 191.715 33.267 191.189 32.9445C190.68 32.622 190.196 32.2486 189.763 31.8328C189.305 31.3999 188.855 30.9501 188.431 30.5003C187.845 29.8723 187.217 29.2528 186.555 28.6502C186.157 28.3022 185.732 27.9797 185.282 27.6997C185.834 27.4281 186.318 27.0377 186.708 26.5624C187.396 25.7222 187.752 24.6614 187.727 23.5751C187.727 22.964 187.599 22.353 187.353 21.7929C187.124 21.2412 186.793 20.749 186.369 20.3246C185.944 19.9003 185.452 19.5693 184.901 19.3317C184.332 19.0856 183.712 18.9667 183.084 18.9667H177.5V35.0153H179.342V28.1919H180.369C181.115 28.1919 181.854 28.3022 182.567 28.5059C183.169 28.7011 183.746 28.9642 184.281 29.2952C184.799 29.6177 185.274 29.9911 185.715 30.407C186.174 30.8483 186.623 31.3066 187.065 31.7733C187.531 32.2571 188.015 32.7324 188.507 33.1991C189.034 33.6914 189.594 34.1327 190.205 34.5231C190.867 34.9389 191.58 35.2614 192.335 35.4821C193.226 35.7282 194.143 35.847 195.059 35.8385C195.84 35.83 196.621 35.7197 197.376 35.5075C198.751 35.1171 200.126 34.591 200.72 33.1737C200.898 32.8002 200.991 32.4014 201 32.0025ZM179.384 20.8254H183.101C183.831 20.8254 184.536 21.1139 185.062 21.6316C185.308 21.8777 185.512 22.1748 185.647 22.4973C186.08 23.5411 185.876 24.7378 185.113 25.5695C184.57 26.0872 183.848 26.3588 183.101 26.3248H179.384V20.8254Z" fill="#0E4D65" stroke="#0E4D65" stroke-width="0.5" stroke-miterlimit="10"/>
<path d="M156.954 18.9922H155.757L155.554 19.425L149.053 35.0408H151.064L152.728 31.0435H160.009L161.707 35.0408H163.735L156.954 18.9922ZM153.483 29.1764L156.36 22.3105L159.22 29.1764H153.483Z" fill="#0E4D65" stroke="#0E4D65" stroke-width="0.5" stroke-miterlimit="10"/>
<path d="M63.3772 20.8759V24.8392H70.0648V26.7063H63.3772V35.0404H61.5186V19.0088H71.0323V20.8759H63.3772Z" fill="#0E4D65" stroke="#0E4D65" stroke-width="0.5" stroke-miterlimit="10"/>
<path d="M140.345 27.9797C141.143 27.7335 141.848 27.2668 142.382 26.6303C143.095 25.7816 143.469 24.6953 143.435 23.5835C143.435 22.9724 143.307 22.3614 143.07 21.8013C142.832 21.2581 142.501 20.7574 142.085 20.333C141.661 19.9172 141.169 19.5862 140.617 19.3486C140.04 19.1025 139.429 18.9836 138.801 18.9836H132.962V35.0407H134.812V28.2173H138.351L141.907 35.0407H144.012L140.345 27.9797ZM134.854 20.8507H138.818C139.191 20.8507 139.556 20.9271 139.896 21.0714C140.227 21.2157 140.524 21.4109 140.778 21.657C141.024 21.9116 141.228 22.2086 141.364 22.5311C141.508 22.8621 141.585 23.227 141.585 23.5835C141.669 25.0178 140.583 26.2568 139.149 26.3417C139.038 26.3502 138.928 26.3502 138.826 26.3417H134.863L134.854 20.8507Z" fill="#0E4D65" stroke="#0E4D65" stroke-width="0.5" stroke-miterlimit="10"/>
<path d="M123.396 20.8507V24.8226H130.084V26.6812H123.396V33.1651H131.051V35.0322H121.521V18.9836H131.051V20.8507H123.396Z" fill="#0E4D65" stroke="#0E4D65" stroke-width="0.5" stroke-miterlimit="10"/>
<path d="M96.5283 26.5963C96.5368 27.725 96.3161 28.8453 95.8748 29.8892C95.0176 31.9175 93.4051 33.53 91.3768 34.3787C90.3329 34.82 89.2211 35.0407 88.0924 35.0322H73.1641V19.0006H75.0312V33.1651H88.0839C88.958 33.1736 89.8237 32.9953 90.6299 32.6474C91.4107 32.3079 92.1236 31.8327 92.7262 31.2301C93.3287 30.6275 93.804 29.9146 94.1435 29.1338C94.8309 27.5129 94.8309 25.6712 94.1435 24.0502C93.804 23.2695 93.3287 22.5566 92.7262 21.954C92.1236 21.3514 91.4107 20.8762 90.6299 20.5452C89.0089 19.8493 87.1673 19.8493 85.5463 20.5452C84.7655 20.8762 84.0526 21.3599 83.4501 21.9625C82.8475 22.5651 82.3723 23.2779 82.0413 24.0587C81.3538 25.6797 81.3538 27.5214 82.0413 29.1423C82.3723 29.9231 82.856 30.636 83.4586 31.2386C83.5519 31.3404 83.6538 31.4338 83.7641 31.5186L84.2818 31.9684H82.2959C81.7018 31.9684 81.3453 31.6375 80.9804 31.1622C80.5646 30.6106 80.5815 30.5257 80.31 29.8892C79.8686 28.8538 79.6395 27.7335 79.648 26.6048C79.648 24.3643 80.5306 22.2086 82.1092 20.6216C82.8815 19.8578 83.7896 19.2467 84.7995 18.8224C86.9042 17.9397 89.272 17.9397 91.3768 18.8224C93.4136 19.6711 95.0261 21.2835 95.8748 23.3204C96.3161 24.3473 96.5368 25.4675 96.5283 26.5963Z" fill="#0E4D65" stroke="#0E4D65" stroke-width="0.5" stroke-miterlimit="10"/>
<path d="M119.722 19.1277L113.967 35.0405H112.287L112.236 34.9132L107.942 22.8789L103.605 35.0405L103.461 35.0489H101.916L96.875 20.9948L96.1621 19.1362H98.1565C99.8284 23.2777 101.246 27.6569 102.756 31.8749L107.051 19.7981C107.068 19.7642 107.085 19.7387 107.093 19.7133L107.305 19.1362H108.57L108.79 19.7218C108.807 19.7387 108.816 19.7642 108.824 19.7897L113.127 31.8749C114.629 27.6654 116.047 23.2693 117.727 19.1362H119.722V19.1277Z" fill="#0E4D65" stroke="#0E4D65" stroke-width="0.5" stroke-miterlimit="10"/>
<path fill-rule="evenodd" clip-rule="evenodd" d="M26.5873 35.0406H27.6991C28.5732 36.4579 29.1758 38.0279 29.4728 39.6659C29.6596 40.6164 29.6511 41.2699 29.6341 44.1978V53.1514L34.4291 47.287L38.0445 48.9589C38.2991 44.6307 38.2567 40.1411 35.193 36.67L26.5873 28.0559L17.9817 36.67C14.918 40.1326 14.8755 44.6222 15.1301 48.9589L18.7455 47.287L23.5406 53.1514V44.1978C23.5236 41.2614 23.5236 40.6164 23.7018 39.6659C23.9989 38.0194 24.6014 36.4579 25.4756 35.0406H26.5873ZM31.2042 39.3773C30.7628 37.1707 29.9311 35.3121 28.6072 33.4875L28.8957 32.834L33.1986 37.1623C33.8096 37.7309 34.3358 38.3759 34.7771 39.0718C35.9398 41.3463 36.5424 44.1554 36.5424 46.7099L34.0897 45.5982L31.4588 48.594C31.4503 45.7594 31.7728 42.0167 31.2042 39.3773ZM25.2379 31.6289L26.5958 30.5425L27.9537 31.6289L27.1899 33.4196H26.5958H26.0017L25.2379 31.6289ZM19.9931 37.1707L24.2959 32.8425L24.5844 33.496C23.2605 35.3206 22.4288 37.1792 21.9875 39.3858C21.4104 42.0252 21.7414 45.7679 21.7414 48.611L19.1104 45.6151L16.6578 46.7269C16.6578 44.1724 17.2688 41.3547 18.423 39.0888C18.8558 38.3759 19.382 37.7309 19.9931 37.1707Z" fill="#0E4D65" stroke="#0E4D65" stroke-width="0.5" stroke-miterlimit="10"/>
<path d="M17.1844 18.6779C15.1051 16.5901 12.2705 15.4189 9.31708 15.4189C8.70603 15.4189 8.09498 15.4699 7.49241 15.5717C7.13597 15.6311 6.77952 15.7075 6.42307 15.8009C6.02419 15.9027 5.64229 16.03 5.26038 16.1828C3.45269 16.8872 2.34092 17.7953 1 19.1192L8.45991 26.5791L1 34.039C2.34092 35.3799 3.42723 36.2795 5.26038 36.9924C5.64229 37.1367 6.02419 37.264 6.42307 37.3743C6.77103 37.4677 7.12748 37.5441 7.49241 37.6035C8.09498 37.7053 8.70603 37.7478 9.32556 37.7478C12.2365 37.7562 15.1645 36.5935 17.1844 34.4803L25.0941 26.5706L17.1844 18.6779ZM15.6907 20.1716L18.5507 23.0316C17.9651 22.9383 17.3796 22.8958 16.7855 22.8958C14.3582 22.8958 11.9904 23.6851 10.0554 25.1533L4.10617 19.2041C4.8615 18.6694 5.68472 18.2535 6.56735 17.9735C6.86439 17.8801 7.16991 17.7953 7.47544 17.7358C10.5222 17.0909 13.4756 18.0329 15.6907 20.1716ZM15.4955 33.1903C13.3398 35.1932 10.344 36.0249 7.46695 35.4224C7.16143 35.3545 6.8559 35.2781 6.55886 35.1847C5.68472 34.9047 4.85301 34.4973 4.10617 33.9626L10.4034 27.6739C10.6156 27.4617 10.8362 27.258 11.0738 27.0629L11.0993 27.0374C12.7033 25.7219 14.7147 25.009 16.7855 25.0175C17.405 25.0175 18.033 25.0854 18.6441 25.2127C19.7219 25.4419 21.241 25.9681 22.1152 26.5876L15.4955 33.1903Z" fill="#0E4D65" stroke="#0E4D65" stroke-width="0.5" stroke-miterlimit="10"/>
<path d="M34.4977 17.1844C36.5854 15.1051 37.7566 12.2705 37.7566 9.31708C37.7566 8.70603 37.7057 8.09498 37.6038 7.49241C37.5444 7.13597 37.468 6.77952 37.3747 6.42307C37.2728 6.02419 37.1455 5.64228 36.9928 5.26038C36.2884 3.45269 35.3803 2.34092 34.0563 1L26.5964 8.45991L19.1365 1C17.7956 2.34092 16.896 3.42723 16.1831 5.26038C16.0388 5.64228 15.9115 6.02419 15.8012 6.42307C15.7078 6.77103 15.6315 7.12748 15.5721 7.49241C15.4702 8.09498 15.4278 8.70602 15.4278 9.32556C15.4193 12.2365 16.582 15.1645 18.6952 17.1844L26.6049 25.0941L34.4977 17.1844ZM33.004 15.6907L30.1439 18.5507C30.2373 17.9651 30.2797 17.3795 30.2797 16.7855C30.2797 14.3582 29.4904 11.9904 28.0222 10.0554L33.9715 4.10617C34.5061 4.8615 34.922 5.68472 35.2021 6.56735C35.2954 6.86439 35.3803 7.16991 35.4397 7.47544C36.0847 10.5137 35.1511 13.4671 33.004 15.6907ZM19.9852 15.487C17.9823 13.3313 17.1506 10.3355 17.7532 7.45846C17.8211 7.15294 17.8974 6.84741 17.9908 6.55038C18.2709 5.67623 18.6782 4.84453 19.2129 4.09769L25.5016 10.3949C25.7138 10.6071 25.9175 10.8277 26.1127 11.0654L26.1381 11.0908C27.4536 12.6948 28.1665 14.7062 28.158 16.777C28.158 17.3965 28.0901 18.0245 27.9628 18.6356C27.7337 19.7134 27.2075 21.2326 26.5879 22.1067L19.9852 15.487Z" fill="#0E4D65" stroke="#0E4D65" stroke-width="0.5" stroke-miterlimit="10"/>
<path d="M35.983 34.4977C38.0622 36.5854 40.8968 37.7566 43.8502 37.7566C44.4613 37.7566 45.0723 37.7057 45.6749 37.6038C46.0313 37.5444 46.3878 37.468 46.7442 37.3747C47.1431 37.2728 47.525 37.1455 47.9069 36.9928C49.7146 36.2884 50.8264 35.3803 52.1673 34.0563L44.7074 26.5964L52.1673 19.1365C50.8264 17.7956 49.7401 16.896 47.9069 16.1831C47.525 16.0388 47.1431 15.9115 46.7442 15.8012C46.3963 15.7078 46.0398 15.6315 45.6749 15.5721C45.0723 15.4702 44.4613 15.4278 43.8417 15.4278C40.9308 15.4193 38.0028 16.582 35.983 18.6952L28.0732 26.6049L35.983 34.4977ZM37.4766 33.004L34.6166 30.1439C35.2022 30.2373 35.7878 30.2797 36.3818 30.2797C38.8091 30.2797 41.1769 29.4904 43.1119 28.0222L49.0611 33.9715C48.3058 34.5061 47.4826 34.922 46.6 35.2021C46.3029 35.2954 45.9974 35.3803 45.6919 35.4397C42.6536 36.0847 39.7002 35.1426 37.4766 33.004ZM37.6803 19.9767C39.836 17.9738 42.8318 17.1421 45.7088 17.7447C46.0144 17.8126 46.3199 17.889 46.6169 17.9823C47.4911 18.2624 48.3228 18.6697 49.0696 19.2044L42.7724 25.4931C42.5602 25.7053 42.3396 25.909 42.1019 26.1042L42.0765 26.1297C40.4725 27.4451 38.4611 28.158 36.3903 28.1495C35.7708 28.1495 35.1428 28.0816 34.5317 27.9543C33.4539 27.7252 31.9347 27.199 31.0606 26.5795L37.6803 19.9767Z" fill="#0E4D65" stroke="#0E4D65" stroke-width="0.5" stroke-miterlimit="10"/>
</svg>
