<svg xmlns="http://www.w3.org/2000/svg" width="25" height="25" fill="none" stroke="#fff" stroke-width="1.5" xmlns:v="https://vecta.io/nano"><circle cx="18.05" cy="19.7" r="1.05"/><circle cx="11.749" cy="19.7" r="1.05"/><g stroke-linejoin="round"><path d="M2.75 3.5h1.8c.3 0 .99.27 1.35 1.35.127.38.406 1.403.747 2.7m0 0L8.6 15.2c.15.45.72 1.35 1.8 1.35h8.55c.45 0 1.44-.36 1.8-1.8L22.1 8.9c.15-.45.09-1.35-1.35-1.35h-1.8m-12.303 0h4.603" stroke-linecap="round"/><g stroke-miterlimit="10"><path d="M12.311 8.164h1.604v3.737a.6.6 0 0 0 1.048.394l3.929-4.463a.6.6 0 0 0-.451-.996h-1.604V3.099a.6.6 0 0 0-1.048-.394l-3.929 4.463c-.337.389-.062.996.452.996z"/><path d="M10.75 4.5h-2m-2 7h-2m6 0h1" stroke-linecap="round"/></g></g></svg>